<?xml version="1.0" encoding="UTF-8"?>
<svg id="Layer_1" data-name="Layer 1" xmlns="http://www.w3.org/2000/svg" viewBox="0 0 1185.7 364.38">
  <defs>
    <style>
      .cls-1 {
        fill: #004fff;
      }

      .cls-1, .cls-2 {
        stroke-width: 0px;
      }

      .cls-2 {
        fill: #ff9700;
      }
    </style>
  </defs>
  <rect class="cls-2" x="397.42" y="49.94" width="92.19" height="40.15" rx="3.3" ry="3.3"/>
  <path class="cls-1" d="m785.26,90.08h-105.59c-3.37,0-4.56,4.43-1.67,6.15.04.02.07.04.11.07,31.29,18.61,57.86,46.22,77.08,79.83,21.1,36.86,33.37,80.95,33.37,128.32,0,4.62-.12,9.21-.35,13.76-.09,1.75-1.55,3.12-3.3,3.12h-35.55c-1.83,0-3.31-1.49-3.3-3.32,0-.62,0-1.25,0-1.88,0-52.88-16.31-101.51-43.63-140-13.76-19.41-30.33-36.24-49.03-49.74,0,0,0,0,0-.02-19.02-13.73-40.25-24.03-62.95-30.07-15.22-4.06-31.1-6.2-47.43-6.2-4.62,0-9.21.17-13.76.51-1.9.14-3.52-1.38-3.52-3.29v-34.08c0-1.82,1.48-3.3,3.3-3.3h256.22c1.82,0,3.3,1.48,3.3,3.3v33.55c0,1.82-1.48,3.3-3.3,3.3Z"/>
  <path class="cls-1" d="m668.43,188.72c0,73.05-60.58,132.28-135.31,132.28-2.72,0-5.43-.08-8.11-.24-12.58-.72-24.71-3.13-36.13-7-48.56-16.41-84.58-59.09-90.28-110.66h0c-.52-4.73-.79-9.53-.79-14.39,0-3.09.11-6.15.32-9.19.12-1.73,1.56-3.08,3.3-3.08h37.28c1.9,0,3.38,1.59,3.29,3.48-.07,1.36-.1,2.72-.1,4.09,0,33.06,18.98,61.82,46.98,76.67,10.88,5.77,23.12,9.44,36.13,10.44,2.4.19,4.83.29,7.28.29,49.91,0,90.38-39.13,90.38-87.4,0-1.37-.03-2.73-.1-4.09-.09-1.89,1.4-3.48,3.29-3.48h38.95c1.74,0,3.18,1.35,3.3,3.08.21,3.04.32,6.1.32,9.19Z"/>
</svg>